<svg width="24" height="24" viewBox="0 0 24 24" fill="none" xmlns="http://www.w3.org/2000/svg">
<g clip-path="url(#clip0_2235_8980)">
<path d="M16.7057 8.70569C17.9532 8.70569 18.9738 9.67648 19.0535 10.9038L19.0585 11.0585V11.7707C18.1636 11.0318 17.0161 10.5879 15.765 10.5879C12.9063 10.5879 10.5889 12.9053 10.5889 15.764C10.5889 17.0152 11.0328 18.1628 11.7718 19.0577H11.0593C9.8119 19.0577 8.79121 18.0869 8.71155 16.8596L8.70654 16.7049V11.0585C8.70654 9.81104 9.67734 8.79035 10.9046 8.71069L11.0593 8.70569H16.7057Z" fill="white"/>
<path d="M11.5312 15.765C11.5312 13.4261 13.4273 11.53 15.7663 11.53C18.1052 11.53 20.0013 13.4261 20.0013 15.765C20.0013 18.104 18.1052 20 15.7663 20C13.4273 20 11.5312 18.104 11.5312 15.765ZM17.7597 15.0057C17.9251 14.8404 17.9251 14.5722 17.7597 14.4068C17.5943 14.2414 17.3262 14.2414 17.1608 14.4068L15.3428 16.2249L14.3717 15.2538C14.2063 15.0884 13.9382 15.0884 13.7728 15.2538C13.6074 15.4192 13.6074 15.6874 13.7728 15.8527L15.0433 17.1232C15.2087 17.2886 15.4768 17.2886 15.6422 17.1232L17.7597 15.0057Z" fill="white"/>
<path d="M7.77012 15.8756C6.93468 15.5785 6.34961 14.7808 6.34961 13.8434V7.80591C6.34961 6.61504 7.315 5.64966 8.50586 5.64966H14.5434C15.7257 5.64966 16.6857 6.58101 16.6995 7.76005H10.5901C9.13179 7.76005 7.77012 9.23687 7.77012 10.4201C7.77012 10.5274 7.77012 10.5901 7.77012 10.5901V15.8756Z" fill="white"/>
</g>
<defs>
<clipPath id="clip0_2235_8980">
<rect width="24" height="24" fill="white"/>
</clipPath>
</defs>
</svg>
